<svg width="67" height="24" viewBox="0 0 67 24" fill="none" xmlns="http://www.w3.org/2000/svg">
<path d="M20.7804 22.6421C21.262 23.1581 20.8961 24 20.1903 24L10.351 23.9996C9.62722 23.9996 8.93738 23.6929 8.45244 23.1557L0.621458 14.4801C-0.0815012 13.7013 0.47114 12.458 1.52026 12.458H9.87304C10.7681 12.458 11.6229 12.8295 12.2336 13.4838L20.7804 22.6421Z" fill="white"/>
<path d="M8.59834 0.524731C8.90418 0.19041 9.33642 0 9.78953 0H42.3976C42.8405 0 43.2638 0.18189 43.5687 0.503088L52.7359 10.1628C53.224 10.6771 52.8594 11.5256 52.1504 11.5256H1.2835C0.230567 11.5256 -0.320584 10.2745 0.390117 9.49759L8.59834 0.524731Z" fill="white"/>
<path d="M22.4213 23.1972C22.8801 23.6987 23.5284 23.9843 24.2081 23.9843H56.1138C56.7781 23.9843 57.4131 23.7115 57.8704 23.2297L66.1522 14.503C66.8843 13.7315 66.3374 12.4587 65.2739 12.4587H14.4303C13.7283 12.4587 13.3609 13.2928 13.8347 13.8107L22.4213 23.1972Z" fill="white"/>
</svg>
